<?xml version="1.0" encoding="UTF-8" standalone="no"?>
<svg
   version="1.1"
   x="0px"
   y="0px"
   viewBox="0 0 100 125"
   enable-background="new 0 0 100 100"
   xml:space="preserve"
   id="svg2"
   sodipodi:docname="noun-paw-29160.svg"
   inkscape:version="1.4 (e7c3feb100, 2024-10-09)"
   xmlns:inkscape="http://www.inkscape.org/namespaces/inkscape"
   xmlns:sodipodi="http://sodipodi.sourceforge.net/DTD/sodipodi-0.dtd"
   xmlns="http://www.w3.org/2000/svg"
   xmlns:svg="http://www.w3.org/2000/svg"><defs
     id="defs2" /><sodipodi:namedview
     id="namedview2"
     pagecolor="#505050"
     bordercolor="#eeeeee"
     borderopacity="1"
     inkscape:showpageshadow="0"
     inkscape:pageopacity="0"
     inkscape:pagecheckerboard="0"
     inkscape:deskcolor="#505050"
     inkscape:zoom="6.424"
     inkscape:cx="50.0467"
     inkscape:cy="68.259651"
     inkscape:window-width="1920"
     inkscape:window-height="1014"
     inkscape:window-x="0"
     inkscape:window-y="0"
     inkscape:window-maximized="1"
     inkscape:current-layer="svg2" /><path
     d="M80.54,32.641l-5.85,2.41c-2.009-1.266-4.368-1.75-6.651-1.446l0.209-0.429c2.062-4.237,0.852-9.208-2.632-12.08l0.457-6.31  l-4.683,4.254c-4.408-0.967-9.065,1.149-11.127,5.386l-0.28,0.576l-0.43-0.832c-2.165-4.185-6.873-6.186-11.257-5.112l-4.784-4.138  l0.61,6.296c-3.412,2.956-4.5,7.956-2.335,12.141l0.22,0.424c-2.318-0.282-4.706,0.247-6.716,1.573l-5.897-2.289l2.691,5.725  c-2.219,3.93-1.563,9.004,1.882,12.219L30,56.637V100h40V56.838l6.338-6.162c3.378-3.285,3.929-8.372,1.629-12.255L80.54,32.641z"
     id="path1" /></svg>
